<?xml version="1.0" encoding="utf-8"?>
<!-- Generator: Adobe Illustrator 21.0.2, SVG Export Plug-In . SVG Version: 6.00 Build 0)  -->
<svg version="1.1" xmlns="http://www.w3.org/2000/svg" xmlns:xlink="http://www.w3.org/1999/xlink" x="0px" y="0px"
	 viewBox="0 0 138 200" style="enable-background:new 0 0 138 200;" xml:space="preserve">
<style type="text/css">
	.st0{fill:#F7C00C;}
	.st1{fill:#2A2527;}
	.st2{fill:#E2D39F;}
	.st3{fill:#2B292A;}
	.st4{fill:#F7AE08;}
	.st5{fill:#F26D76;}
	.st6{fill:#F9A926;}
	.st7{fill:#36D9D9;}
	.st8{fill:#39D884;}
	.st9{fill:#D33C7A;}
</style>
<g id="Livello_1">
</g>
<g id="Livello_2">
	<g>
		<g>
			<path class="st0" d="M106.3,72.6c0.4-5.3,0.7-10.6,0.7-15.8H31c0,5.2,0.2,10.5,0.6,15.8H10.1l0.2,3.6c0.1,1.3,1.8,33.1,18,46.9
				c4.9,4.2,10.7,6.3,17.1,6.3c0.7,0,1.5,0,2.2-0.1c4.2,6.4,9.2,11.1,15,13l-3.9,27h9.5h0.4h9.5l-3.9-26.6
				c6.1-1.8,11.4-6.6,15.9-13.4c0.9,0.1,1.7,0.1,2.6,0.1c6.4,0,12.1-2.1,17.1-6.3c16.3-13.7,18-45.5,18-46.9l0.2-3.6H106.3z
				 M32.8,117.8c-11.1-9.3-14.4-30-15.3-38.3h14.9c1.8,15.9,5.6,31.2,11.3,42.9C39.6,122.1,36,120.6,32.8,117.8z M105.2,117.8
				c-3.3,2.8-7.1,4.3-11.3,4.6c5.8-11.6,9.7-26.9,11.6-42.9h14.9C119.6,87.9,116.3,108.5,105.2,117.8z"/>
			<path class="st0" d="M83.4,169H54.6c-0.9,0-1.6-0.7-1.6-1.6l0,0c0-0.9,0.7-1.6,1.6-1.6h28.8c0.9,0,1.6,0.7,1.6,1.6l0,0
				C85,168.3,84.3,169,83.4,169z"/>
			<path class="st0" d="M86.5,172.8h-35c-1.5,0-2.8-1.3-2.8-2.8v0c0-1.5,1.3-2.8,2.8-2.8h35c1.5,0,2.8,1.3,2.8,2.8v0
				C89.3,171.5,88,172.8,86.5,172.8z"/>
			<path class="st1" d="M93.5,185.2h-49c-1.7,0-3-1.4-3-3v-9.5c0-1.6,1.3-3,3-3h49c1.7,0,3,1.4,3,3v9.5
				C96.5,183.9,95.1,185.2,93.5,185.2z"/>
			<path class="st2" d="M80.8,181.7H57.2c-1.6,0-3-1.3-3-3v-2.5c0-1.6,1.4-3,3-3h23.6c1.7,0,3,1.4,3,3v2.5
				C83.8,180.4,82.5,181.7,80.8,181.7z"/>
			<rect x="35.4" y="184.6" class="st3" width="67.2" height="7.2"/>
		</g>
		<g id="dmAh0H.tif">
			<g>
				<path class="st4" d="M53.6,113.8c-0.1,1.8,1.3,2.6,2.9,1.8c3.8-2,7.6-4,11.4-6c0.7-0.4,1.2-0.4,2,0c3.8,2,7.6,4,11.4,6
					c0.8,0.4,1.5,0.6,2.3,0c0.8-0.5,0.8-1.3,0.7-2.1c-0.7-4.3-1.5-8.6-2.2-12.8c-0.1-0.7,0-1.1,0.5-1.6c3.1-3,6.1-5.9,9.2-8.9
					c0.6-0.6,1.2-1.2,0.9-2.2c-0.3-1-1.1-1.3-2-1.4c-4.2-0.6-8.4-1.2-12.7-1.8c-0.8-0.1-1.2-0.4-1.5-1.1c-1.8-3.8-3.8-7.6-5.6-11.4
					c-0.4-0.8-0.8-1.5-1.9-1.5c-1,0-1.5,0.7-1.9,1.5c-1.9,3.8-3.8,7.6-5.7,11.5c-0.3,0.7-0.7,0.9-1.5,1c-4.3,0.6-8.7,1.3-13,1.9
					c-0.9,0.1-1.7,0.6-1.7,1.5c0,0.7,0.4,1.5,0.9,1.9c3,3,6.2,6,9.2,9c0.3,0.3,0.6,0.9,0.5,1.3c-0.1,1.3-0.4,2.6-0.7,4
					C54.7,107.5,54.1,110.7,53.6,113.8z"/>
				<path class="st4" d="M53.6,113.8c0.5-3,1.1-6.2,1.6-9.5c0.2-1.3,0.5-2.6,0.7-4c0-0.4-0.2-1-0.5-1.3c-3.1-3-6.2-6-9.2-9
					c-0.5-0.5-0.9-1.3-0.9-1.9c0-0.9,0.8-1.4,1.7-1.5c4.3-0.6,8.7-1.3,13-1.9c0.7-0.1,1.2-0.4,1.5-1c1.9-3.8,3.8-7.6,5.7-11.5
					c0.4-0.8,0.9-1.5,1.9-1.5c1,0,1.5,0.7,1.9,1.5c1.9,3.8,3.8,7.6,5.6,11.4c0.3,0.7,0.8,1,1.5,1.1c4.2,0.6,8.4,1.2,12.7,1.8
					c0.9,0.1,1.7,0.4,2,1.4c0.3,1-0.3,1.6-0.9,2.2c-3.1,3-6.1,6-9.2,8.9c-0.5,0.5-0.7,0.9-0.5,1.6c0.8,4.3,1.5,8.5,2.2,12.8
					c0.1,0.8,0.1,1.6-0.7,2.1c-0.7,0.5-1.5,0.4-2.3,0c-3.8-2-7.6-4-11.4-6c-0.7-0.4-1.3-0.3-2,0c-3.8,2-7.6,4-11.4,6
					C54.9,116.4,53.5,115.6,53.6,113.8z"/>
			</g>
		</g>
		<g id="dmAh0H.tif_1_">
			<g>
				<path class="st5" d="M25.3,50.5c0.1,1,0.9,1.4,1.8,0.8c2-1.4,3.9-2.8,5.8-4.3c0.4-0.3,0.6-0.3,1.1-0.2c2.3,0.8,4.5,1.6,6.8,2.4
					c0.4,0.2,0.9,0.2,1.3-0.2c0.4-0.4,0.3-0.8,0.2-1.2c-0.8-2.3-1.5-4.6-2.3-6.9c-0.1-0.4-0.1-0.6,0.2-0.9c1.5-1.9,2.9-3.8,4.4-5.7
					c0.3-0.4,0.6-0.8,0.3-1.3c-0.2-0.5-0.7-0.6-1.2-0.6c-2.4,0-4.8,0-7.2,0c-0.4,0-0.7-0.1-0.9-0.5c-1.3-2-2.7-3.9-4-5.8
					c-0.3-0.4-0.6-0.8-1.2-0.7c-0.6,0.1-0.8,0.5-0.9,1c-0.7,2.3-1.5,4.5-2.2,6.8c-0.1,0.4-0.3,0.6-0.7,0.7c-2.4,0.7-4.7,1.4-7,2.1
					c-0.5,0.2-0.9,0.5-0.8,1c0.1,0.4,0.3,0.8,0.7,1c1.9,1.4,3.9,2.8,5.9,4.3c0.2,0.1,0.4,0.4,0.4,0.7c0,0.7,0,1.5,0,2.2
					C25.4,46.9,25.4,48.7,25.3,50.5z"/>
				<path class="st5" d="M25.3,50.5c0-1.7,0.1-3.6,0.1-5.4c0-0.7,0.1-1.5,0-2.2c0-0.2-0.2-0.5-0.4-0.7c-1.9-1.4-3.9-2.8-5.9-4.3
					c-0.3-0.2-0.6-0.6-0.7-1c-0.1-0.5,0.3-0.8,0.8-1c2.4-0.7,4.7-1.4,7-2.1c0.4-0.1,0.6-0.3,0.7-0.7c0.7-2.3,1.5-4.5,2.2-6.8
					c0.2-0.5,0.4-0.9,0.9-1c0.6-0.1,0.9,0.3,1.2,0.7c1.3,2,2.7,3.9,4,5.8c0.2,0.4,0.5,0.5,0.9,0.5c2.4,0,4.8,0,7.2,0
					c0.5,0,1,0.1,1.2,0.6c0.2,0.5,0,0.9-0.3,1.3c-1.5,1.9-2.9,3.8-4.4,5.7c-0.2,0.3-0.3,0.5-0.2,0.9c0.8,2.3,1.5,4.6,2.3,6.9
					c0.1,0.4,0.2,0.9-0.2,1.2c-0.4,0.3-0.8,0.3-1.3,0.2c-2.3-0.8-4.6-1.6-6.8-2.4c-0.4-0.2-0.7-0.1-1.1,0.2
					c-1.9,1.4-3.9,2.9-5.8,4.3C26.3,51.8,25.4,51.5,25.3,50.5z"/>
			</g>
		</g>
		<g id="dmAh0H.tif_3_">
			<g>
				<path class="st6" d="M95.9,47.1c-0.3,1,0.4,1.6,1.4,1.4c2.3-0.6,4.7-1.2,7-1.8c0.4-0.1,0.7-0.1,1.1,0.2c1.8,1.6,3.6,3.2,5.5,4.7
					c0.4,0.3,0.7,0.5,1.2,0.3c0.5-0.2,0.6-0.6,0.6-1.1c0.1-2.4,0.3-4.9,0.4-7.3c0-0.4,0.2-0.6,0.5-0.8c2.1-1.2,4.1-2.5,6.2-3.7
					c0.4-0.2,0.8-0.5,0.8-1.1c0-0.6-0.4-0.8-0.9-1c-2.2-0.9-4.4-1.8-6.7-2.6c-0.4-0.2-0.6-0.4-0.7-0.8c-0.5-2.3-1.1-4.6-1.6-6.9
					c-0.1-0.5-0.3-0.9-0.8-1.1c-0.6-0.1-0.9,0.2-1.2,0.6c-1.5,1.9-3,3.7-4.5,5.5c-0.3,0.3-0.5,0.4-0.9,0.4c-2.4-0.2-4.9-0.4-7.3-0.6
					c-0.5,0-1,0.1-1.1,0.6c-0.1,0.4,0,0.8,0.2,1.2c1.3,2.1,2.6,4.1,3.9,6.1c0.1,0.2,0.2,0.5,0.1,0.8c-0.2,0.7-0.6,1.4-0.9,2.1
					C97.2,43.8,96.5,45.5,95.9,47.1z"/>
				<path class="st6" d="M95.9,47.1c0.7-1.6,1.4-3.3,2.1-5c0.3-0.7,0.6-1.4,0.9-2.1c0.1-0.2,0-0.6-0.1-0.8c-1.3-2-2.6-4.1-3.9-6.1
					c-0.2-0.3-0.3-0.8-0.2-1.2c0.1-0.5,0.6-0.6,1.1-0.6c2.4,0.2,4.9,0.4,7.3,0.6c0.4,0,0.7-0.1,0.9-0.4c1.5-1.9,3-3.7,4.5-5.5
					c0.3-0.4,0.7-0.7,1.2-0.6c0.6,0.1,0.7,0.6,0.8,1.1c0.5,2.3,1.1,4.6,1.6,6.9c0.1,0.4,0.3,0.6,0.7,0.8c2.2,0.8,4.5,1.7,6.7,2.6
					c0.5,0.2,0.9,0.4,0.9,1c0,0.6-0.4,0.8-0.8,1.1c-2.1,1.2-4.1,2.5-6.2,3.7c-0.3,0.2-0.5,0.4-0.5,0.8c-0.1,2.4-0.3,4.9-0.4,7.3
					c0,0.5-0.1,0.9-0.6,1.1c-0.5,0.2-0.9,0-1.2-0.3c-1.8-1.6-3.7-3.1-5.5-4.7c-0.4-0.3-0.7-0.3-1.1-0.2c-2.3,0.6-4.7,1.2-7,1.8
					C96.2,48.7,95.6,48.1,95.9,47.1z"/>
			</g>
		</g>
		<g id="dmAh0H.tif_2_">
			<g>
				<path class="st7" d="M63.3,46.5c-0.1,0.8,0.5,1.2,1.2,0.8c1.7-0.7,3.3-1.5,5-2.2c0.3-0.1,0.5-0.1,0.8,0c1.5,1,3.1,1.9,4.7,2.9
					c0.3,0.2,0.6,0.3,1,0.1c0.3-0.2,0.4-0.5,0.3-0.9c-0.2-1.8-0.4-3.7-0.6-5.5c0-0.3,0.1-0.5,0.3-0.7c1.4-1.2,2.8-2.3,4.2-3.5
					c0.3-0.2,0.5-0.5,0.4-0.9c-0.1-0.4-0.4-0.6-0.8-0.6c-1.8-0.4-3.5-0.8-5.3-1.1c-0.3-0.1-0.5-0.2-0.6-0.5c-0.7-1.7-1.4-3.3-2-5
					c-0.1-0.4-0.3-0.7-0.7-0.7c-0.4,0-0.7,0.2-0.8,0.6c-0.9,1.6-1.8,3.1-2.7,4.7c-0.2,0.3-0.3,0.4-0.7,0.4c-1.9,0.1-3.7,0.3-5.6,0.4
					c-0.4,0-0.7,0.2-0.8,0.6c0,0.3,0.1,0.6,0.3,0.8c1.2,1.4,2.4,2.7,3.6,4.1c0.1,0.1,0.2,0.4,0.2,0.6c-0.1,0.6-0.3,1.1-0.4,1.7
					C64,43.8,63.6,45.2,63.3,46.5z"/>
				<path class="st7" d="M63.3,46.5c0.3-1.3,0.6-2.6,1-4c0.1-0.6,0.3-1.1,0.4-1.7c0-0.2-0.1-0.4-0.2-0.6c-1.2-1.4-2.4-2.7-3.6-4.1
					c-0.2-0.2-0.3-0.6-0.3-0.8c0-0.4,0.4-0.6,0.8-0.6c1.9-0.1,3.7-0.3,5.6-0.4c0.3,0,0.5-0.1,0.7-0.4c0.9-1.6,1.8-3.1,2.7-4.7
					c0.2-0.3,0.4-0.6,0.8-0.6c0.4,0,0.6,0.3,0.7,0.7c0.7,1.7,1.4,3.3,2,5c0.1,0.3,0.3,0.4,0.6,0.5c1.8,0.4,3.5,0.8,5.3,1.1
					c0.4,0.1,0.7,0.2,0.8,0.6c0.1,0.4-0.2,0.7-0.4,0.9c-1.4,1.2-2.8,2.3-4.2,3.5c-0.2,0.2-0.3,0.4-0.3,0.7c0.2,1.8,0.4,3.7,0.6,5.5
					c0,0.4,0,0.7-0.3,0.9c-0.3,0.2-0.6,0.1-1-0.1c-1.6-1-3.1-1.9-4.7-2.9c-0.3-0.2-0.5-0.2-0.8,0c-1.7,0.7-3.3,1.5-5,2.2
					C63.8,47.6,63.2,47.2,63.3,46.5z"/>
			</g>
		</g>
		<g id="dmAh0H.tif_4_">
			<g>
				<path class="st8" d="M47.8,26c-0.1,0.8,0.5,1.2,1.2,0.8c1.7-0.7,3.3-1.5,5-2.2c0.3-0.1,0.5-0.1,0.8,0c1.5,1,3.1,1.9,4.7,2.9
					c0.3,0.2,0.6,0.3,1,0.1c0.3-0.2,0.4-0.5,0.3-0.9c-0.2-1.8-0.4-3.7-0.6-5.5c0-0.3,0.1-0.5,0.3-0.7c1.4-1.2,2.8-2.3,4.2-3.5
					c0.3-0.2,0.5-0.5,0.4-0.9c-0.1-0.4-0.4-0.6-0.8-0.6c-1.8-0.4-3.5-0.8-5.3-1.1c-0.3-0.1-0.5-0.2-0.6-0.5c-0.7-1.7-1.4-3.3-2-5
					c-0.1-0.4-0.3-0.7-0.7-0.7c-0.4,0-0.7,0.2-0.8,0.6c-0.9,1.6-1.8,3.1-2.7,4.7c-0.2,0.3-0.3,0.4-0.7,0.4c-1.9,0.1-3.7,0.3-5.6,0.4
					c-0.4,0-0.7,0.2-0.8,0.6c0,0.3,0.1,0.6,0.3,0.8c1.2,1.4,2.4,2.7,3.6,4.1c0.1,0.1,0.2,0.4,0.2,0.6c-0.1,0.6-0.3,1.1-0.4,1.7
					C48.5,23.4,48.1,24.8,47.8,26z"/>
				<path class="st8" d="M47.8,26c0.3-1.3,0.6-2.6,1-4c0.1-0.6,0.3-1.1,0.4-1.7c0-0.2-0.1-0.4-0.2-0.6c-1.2-1.4-2.4-2.7-3.6-4.1
					c-0.2-0.2-0.3-0.6-0.3-0.8c0-0.4,0.4-0.6,0.8-0.6c1.9-0.1,3.7-0.3,5.6-0.4c0.3,0,0.5-0.1,0.7-0.4c0.9-1.6,1.8-3.1,2.7-4.7
					c0.2-0.3,0.4-0.6,0.8-0.6c0.4,0,0.6,0.3,0.7,0.7c0.7,1.7,1.4,3.3,2,5c0.1,0.3,0.3,0.4,0.6,0.5c1.8,0.4,3.5,0.8,5.3,1.1
					c0.4,0.1,0.7,0.2,0.8,0.6c0.1,0.4-0.2,0.7-0.4,0.9c-1.4,1.2-2.8,2.3-4.2,3.5c-0.2,0.2-0.3,0.4-0.3,0.7c0.2,1.8,0.4,3.7,0.6,5.5
					c0,0.4,0,0.7-0.3,0.9c-0.3,0.2-0.6,0.1-1-0.1c-1.6-1-3.1-1.9-4.7-2.9c-0.3-0.2-0.5-0.2-0.8,0c-1.7,0.7-3.3,1.5-5,2.2
					C48.3,27.2,47.7,26.8,47.8,26z"/>
			</g>
		</g>
		<g id="dmAh0H.tif_5_">
			<g>
				<path class="st9" d="M79.2,26.9c0,0.8,0.6,1.1,1.3,0.7c1.6-0.9,3.1-1.9,4.7-2.9c0.3-0.2,0.5-0.2,0.8-0.1c1.7,0.8,3.3,1.5,5,2.2
					c0.3,0.1,0.7,0.2,1,0c0.3-0.2,0.3-0.6,0.2-0.9c-0.4-1.8-0.9-3.6-1.3-5.4c-0.1-0.3,0-0.5,0.2-0.7c1.2-1.3,2.4-2.7,3.6-4
					c0.2-0.3,0.5-0.5,0.3-0.9c-0.1-0.4-0.5-0.5-0.9-0.5c-1.8-0.1-3.6-0.3-5.4-0.4c-0.3,0-0.5-0.1-0.7-0.4c-0.9-1.6-1.8-3.1-2.7-4.7
					c-0.2-0.3-0.4-0.6-0.8-0.6c-0.4,0-0.6,0.3-0.8,0.7c-0.7,1.7-1.4,3.3-2.1,5c-0.1,0.3-0.3,0.4-0.6,0.5c-1.8,0.4-3.6,0.8-5.4,1.2
					c-0.4,0.1-0.7,0.3-0.7,0.7c0,0.3,0.2,0.6,0.4,0.8c1.4,1.2,2.8,2.4,4.2,3.6c0.1,0.1,0.3,0.3,0.3,0.5c0,0.6-0.1,1.1-0.2,1.7
					C79.5,24.2,79.3,25.6,79.2,26.9z"/>
				<path class="st9" d="M79.2,26.9c0.1-1.3,0.3-2.7,0.4-4c0.1-0.6,0.1-1.1,0.2-1.7c0-0.2-0.1-0.4-0.3-0.5c-1.4-1.2-2.8-2.4-4.2-3.6
					c-0.2-0.2-0.4-0.5-0.4-0.8c0-0.4,0.3-0.6,0.7-0.7c1.8-0.4,3.6-0.8,5.4-1.2c0.3-0.1,0.5-0.2,0.6-0.5c0.7-1.7,1.4-3.3,2.1-5
					c0.1-0.4,0.3-0.7,0.8-0.7c0.4,0,0.6,0.3,0.8,0.6c0.9,1.6,1.8,3.1,2.7,4.7c0.2,0.3,0.4,0.4,0.7,0.4c1.8,0.1,3.6,0.3,5.4,0.4
					c0.4,0,0.7,0.1,0.9,0.5c0.1,0.4-0.1,0.7-0.3,0.9c-1.2,1.3-2.4,2.7-3.6,4c-0.2,0.2-0.3,0.4-0.2,0.7c0.5,1.8,0.9,3.6,1.3,5.4
					c0.1,0.3,0.1,0.7-0.2,0.9c-0.3,0.2-0.6,0.2-1,0c-1.7-0.7-3.3-1.5-5-2.2c-0.3-0.1-0.5-0.1-0.8,0.1c-1.6,1-3.1,1.9-4.7,2.9
					C79.8,28,79.2,27.7,79.2,26.9z"/>
			</g>
		</g>
	</g>
</g>
</svg>
