<?xml version="1.0" encoding="utf-8"?>
<!-- Generator: Adobe Illustrator 21.0.2, SVG Export Plug-In . SVG Version: 6.00 Build 0)  -->
<svg version="1.1" id="Livello_1" xmlns="http://www.w3.org/2000/svg" xmlns:xlink="http://www.w3.org/1999/xlink" x="0px" y="0px"
	 viewBox="0 0 138 200" style="enable-background:new 0 0 138 200;" xml:space="preserve">
<style type="text/css">
	.st0{fill:#FFFFFF;}
	.st1{fill:#6884A5;}
	.st2{fill:#D2A56D;}
</style>
<g>
	<g id="ex3XkD.tif">
		<g>
			<path class="st0" d="M110.1,79.8c-1.7-14-3.5-28-5.2-42c-1.2-9.5-2.3-19.1-3.5-28.6c-0.2-1.8-1.5-2.8-3.2-2.6
				c-1.6,0.2-2.6,1.6-2.4,3.3c0.1,0.9,0.2,1.8,0.3,2.7c0.1,0.6-0.1,0.9-0.6,1.1c-1.5,0.8-2.9,1.7-4.5,2.5c-7,3.4-14.5,4.4-22.1,3.8
				c-7.2-0.5-14.4-1.5-21.6-2.3c-6.1-0.7-12.2-1.2-18.3-0.7c-7,0.6-13.4,2.6-19.3,6.4C9.2,23.8,9,24.1,9,24.8
				c0.8,5.9,1.5,11.7,2.2,17.6C12.6,53.7,14,65,15.4,76.3c0.5,3.7,0.9,7.5,1.4,11.3c0.2-0.1,0.4-0.2,0.6-0.3
				c7.2-4.9,15.3-6.9,23.9-6.9c6.8-0.1,13.5,0.9,20.2,1.7c6.7,0.9,13.4,1.7,20.2,1.5c7.8-0.3,15.2-2,21.9-6.3
				c0.2-0.1,0.3-0.3,0.4-0.4c0.1,0.3,0.2,0.4,0.2,0.5"/>
			<path class="st1" d="M104.1,77.3c0-0.1,0-0.1-0.2-0.5c-0.2,0.1-0.3,0.3-0.4,0.4c-6.7,4.2-14,6-21.9,6.3
				c-6.8,0.2-13.5-0.6-20.2-1.5c-6.7-0.9-13.4-1.8-20.2-1.7c-8.6,0.1-16.7,2-23.9,6.9c-0.2,0.1-0.3,0.2-0.6,0.3
				c-0.5-3.8-0.9-7.5-1.4-11.3C14,65,12.6,53.7,11.2,42.4C10.5,36.5,9.8,30.7,9,24.8c-0.1-0.7,0.2-1,0.7-1.3
				c5.9-3.8,12.4-5.8,19.3-6.4c6.1-0.5,12.2,0,18.3,0.7c7.2,0.8,14.4,1.8,21.6,2.3c7.6,0.5,15.1-0.5,22.1-3.8c1.5-0.7,3-1.6,4.5-2.5
				c0.5-0.3,0.7-0.6,0.6-1.1c-0.2-0.9-0.2-1.8-0.3-2.7c-0.2-1.7,0.8-3.1,2.4-3.3c1.6-0.2,2.9,0.8,3.2,2.6c1.2,9.5,2.4,19.1,3.5,28.6
				c1.7,14,3.5,28,5.2,42 M73.5,33.3c-4.2-0.2-8.3-0.4-12.5-0.6c0.5,4,1,8.1,1.5,12.1c-4.2-0.5-8.4-1.1-12.8-1.6
				c0.5,4.2,1.1,8.3,1.6,12.4c-4.2-0.4-8.4-0.7-12.7-1.1c-0.5-3.9-1-8-1.5-12.3c4.3,0.3,8.4,0.6,12.6,0.9c-0.5-4.1-1-8.1-1.5-12.2
				c4.3,0.5,8.4,1.1,12.7,1.6c-0.5-3.9-1-7.7-1.4-11.5c-4.2-0.5-8.4-1.1-12.7-1.6c0.5,3.9,0.9,7.6,1.4,11.4
				c-4.3-0.3-8.4-0.6-12.6-0.8c0.5,4.3,1,8.4,1.5,12.2c-4.2,0.5-8.2,1-12.3,1.4c-0.5-3.9-1-8-1.5-12.3c4.2-0.5,8.3-1,12.4-1.4
				c-0.5-3.7-0.9-7.4-1.4-11.3c-4.3,0-8.3,0.4-12.3,1.5c0.5,3.9,0.9,7.7,1.4,11.5c-3.7,1-7.2,2.4-10.4,4.3c-0.5,0.3-0.7,0.6-0.7,1.2
				c0.3,2.2,0.5,4.3,0.8,6.5c0.2,1.7,0.4,3.3,0.7,5.1c3.5-2.2,7.1-3.8,11.1-4.8c0.5,4.1,1,8.2,1.5,12.3c4.1-1,8.2-1.5,12.3-1.4
				c0.1,0.8,0.2,1.5,0.3,2.3c0.4,3.4,0.9,6.7,1.3,10.1c-4.2-0.1-8.3,0.4-12.4,1.4c-0.5-4.1-1-8.2-1.5-12.3c-3.5,0.9-6.7,2.2-9.7,3.9
				c-1.1,0.6-1.4,1.2-1.2,2.5c0.5,3.5,0.9,7,1.4,10.7c3.5-2.1,7.1-3.8,11.1-4.7c0.5,3.9,1,7.7,1.4,11.2c4.2-0.5,8.2-0.9,12.3-1.4
				c-0.4-3.7-0.9-7.5-1.3-11.3c4.2,0.2,8.3,0.4,12.5,0.7c-0.5-4-1-8.1-1.5-12.1c4.2,0.5,8.4,1,12.7,1.6c-0.5-4.2-1-8.3-1.5-12.4
				c4.2,0.4,8.3,0.7,12.6,1.1c-0.2-1.3-0.3-2.3-0.4-3.3C74.3,39.4,73.9,36.4,73.5,33.3c4.2,0,8.3-0.4,12.4-1.5
				c-0.5-3.9-0.9-7.7-1.4-11.2c-4.2,0.5-8.2,1-12.3,1.4c0,0.1,0,0.3,0.1,0.6C72.7,26.2,73.1,29.7,73.5,33.3z M65.5,69.5
				c4.2,0.4,8.4,0.9,12.7,0.8c-0.5-4.2-1-8.2-1.5-12.2c-4.2-0.3-8.4-0.6-12.6-0.9C64.5,61.4,65,65.5,65.5,69.5
				c-2.7-0.3-5.3-0.7-8-1.1c-1.5-0.2-3-0.4-4.6-0.6c0.5,3.9,1,7.7,1.4,11.5C58.5,80,62.7,80.5,67,81C66.5,77.1,66,73.3,65.5,69.5z
				 M89,56.5c-0.5-4.1-1-8.2-1.5-12c-4.2,0.5-8.2,0.9-12.3,1.4c0.5,4,1,8,1.5,12.3c4.2-0.5,8.2-1,12.4-1.4c0.5,3.9,1,8,1.5,12.4
				c-4.2,0.5-8.3,1-12.4,1.4c0.5,3.7,0.9,7.5,1.4,11.3c4.2,0,8.3-0.4,12.3-1.4c-0.5-3.9-0.9-7.7-1.4-11.5c0.4-0.1,0.7-0.2,1-0.3
				c3.3-0.9,6.4-2.3,9.3-4c0.6-0.4,0.8-0.7,0.7-1.4c-0.2-1.3-0.3-2.6-0.5-3.9c-0.3-2.4-0.6-4.9-0.9-7.5C96.6,53.9,93,55.5,89,56.5z
				 M97.1,27.2c-1.9,0.9-3.6,1.9-5.4,2.7C89.9,30.7,88,31.3,86,32c0.5,4,1,8.1,1.5,12.2c3.9-1,7.3-2.5,10.5-4.4
				c0.3-0.2,0.5-0.6,0.5-0.9C98.1,35,97.6,31.1,97.1,27.2z"/>
			<path class="st0" d="M51.3,55.6c0.5,4.1,1,8.1,1.5,12.1c-4.2-0.2-8.4-0.4-12.5-0.7l0,0c-0.4-3.4-0.9-6.7-1.3-10.1
				c-0.1-0.7-0.2-1.5-0.3-2.3c-4.2,0-8.2,0.4-12.3,1.4c-0.5-4.1-1-8.2-1.5-12.3c-4,1-7.6,2.6-11.1,4.8c-0.2-1.8-0.4-3.5-0.7-5.1
				c-0.3-2.2-0.5-4.3-0.8-6.5c-0.1-0.6,0.2-0.9,0.7-1.2c3.2-1.9,6.7-3.4,10.4-4.3c-0.5-3.8-0.9-7.6-1.4-11.5c4-1.1,8.1-1.4,12.3-1.5
				c0.5,3.8,0.9,7.6,1.4,11.3c-4.1,0.5-8.2,0.9-12.4,1.4c0.5,4.4,1,8.4,1.5,12.3c4.1-0.5,8.2-0.9,12.3-1.4c-0.5-3.9-1-7.9-1.5-12.2
				c4.2,0.3,8.3,0.6,12.6,0.8c-0.5-3.7-0.9-7.5-1.4-11.4c4.3,0.5,8.5,1.1,12.7,1.6c0.5,3.8,0.9,7.6,1.4,11.5
				c-4.3-0.5-8.4-1.1-12.7-1.6c0.5,4.1,1,8.2,1.5,12.2c-4.2-0.3-8.4-0.6-12.6-0.9c0.5,4.3,1,8.4,1.5,12.3
				C42.9,54.9,47.1,55.2,51.3,55.6C51.3,55.6,51.3,55.6,51.3,55.6z"/>
			<path class="st0" d="M89,56.5c4-1,7.6-2.6,11.1-4.8c0.3,2.6,0.6,5,0.9,7.5c0.2,1.3,0.3,2.6,0.5,3.9c0.1,0.7,0,1-0.7,1.4
				c-2.9,1.7-6,3.1-9.3,4c-0.3,0.1-0.6,0.2-1,0.3c0.5,3.8,0.9,7.6,1.4,11.5c-4,1-8.1,1.5-12.3,1.4c-0.5-3.8-0.9-7.6-1.4-11.3
				c4.1-0.5,8.2-0.9,12.4-1.4c-0.5-4.4-1-8.4-1.5-12.4c-4.1,0.5-8.2,0.9-12.4,1.4c-0.5-4.3-1-8.4-1.5-12.3c4.1-0.5,8.2-0.9,12.3-1.4
				C88,48.3,88.5,52.4,89,56.5z"/>
			<path class="st0" d="M40.3,67.1c0.4,3.8,0.9,7.6,1.3,11.3c-4.1,0.5-8.1,0.9-12.3,1.4c-0.4-3.6-0.9-7.3-1.4-11.2
				c-4,1-7.6,2.6-11.1,4.7c-0.5-3.7-0.8-7.2-1.4-10.7c-0.2-1.2,0.1-1.9,1.2-2.5c3.1-1.7,6.2-3,9.7-3.9c0.5,4.1,1,8.2,1.5,12.3
				C32,67.5,36.1,67,40.3,67.1C40.3,67.1,40.3,67.1,40.3,67.1z"/>
			<path class="st0" d="M65.5,69.6c-0.5-4.1-1-8.2-1.5-12.3c4.2,0.3,8.4,0.6,12.6,0.9c0.5,4,1,8,1.5,12.2
				C73.9,70.4,69.7,69.9,65.5,69.6L65.5,69.6z"/>
			<path class="st0" d="M51.3,55.6c-0.5-4.1-1-8.2-1.6-12.4c4.3,0.5,8.5,1.1,12.8,1.6l0,0c0.5,4.1,1,8.1,1.5,12.4
				C59.7,56.6,55.5,56.1,51.3,55.6C51.3,55.6,51.3,55.6,51.3,55.6z"/>
			<path class="st0" d="M62.5,44.8c-0.5-4.1-1-8.1-1.5-12.1c4.2,0.2,8.4,0.4,12.5,0.6l0,0c0.4,3.1,0.8,6.2,1.2,9.3
				c0.1,1,0.2,2,0.4,3.3C70.8,45.5,66.7,45.1,62.5,44.8C62.5,44.8,62.5,44.8,62.5,44.8z"/>
			<path class="st0" d="M97.1,27.2c0.5,3.9,1,7.8,1.4,11.7c0,0.3-0.2,0.7-0.5,0.9c-3.2,2-6.7,3.5-10.5,4.4C87,40.1,86.5,36,86,32
				c2-0.7,3.9-1.3,5.7-2.1C93.5,29.1,95.2,28.2,97.1,27.2z"/>
			<path class="st0" d="M65.5,69.5c0.5,3.8,1,7.5,1.5,11.5c-4.3-0.5-8.5-1.1-12.7-1.6c-0.5-3.8-0.9-7.6-1.4-11.5
				c1.6,0.2,3.1,0.4,4.6,0.6C60.1,68.8,62.8,69.2,65.5,69.5C65.5,69.6,65.5,69.5,65.5,69.5z"/>
			<path class="st0" d="M73.5,33.3c-0.4-3.6-0.8-7.1-1.2-10.7c0-0.2-0.1-0.5-0.1-0.6c4.1-0.5,8.2-1,12.3-1.4
				c0.4,3.6,0.9,7.3,1.4,11.2C81.9,32.9,77.7,33.3,73.5,33.3C73.5,33.3,73.5,33.3,73.5,33.3z"/>
		</g>
	</g>
	<path class="st2" d="M122.8,194.1l-2.5,0.3c-1,0.1-1.9-0.6-2-1.6L95.5,7.4c-0.1-1,0.6-1.9,1.6-2L99.5,5c1-0.1,1.9,0.6,2,1.6
		l22.8,185.5C124.5,193.1,123.8,194,122.8,194.1z"/>
</g>
</svg>
